# xmcd
#
# Track frame offsets: 
#        150
#        12675
#        24562
#        37277
#        48387
#        63370
#        76595
#        89145
#        100960
#        113090
#        126070
#        137165
#        149637
#        163907
#        176110
#        190342
#        202837
#        215862
#        228360
#        239752
#        254195
#        269325
#        280215
#        294460
#        307592
#        320470
#
# Disc length: 4432 seconds
#
# Revision: 1
# Processed by: cddbd v1.5.2PL0 Copyright (c) Steve Scherf et al.
# Submitted via: ExactAudioCopy v1.0b3
#
DISCID=98114e1a
DTITLE=Gene Autry - The Ultimate Collection
DYEAR=1998
DGENRE=Oldies
TTITLE0=Deep In The Heart Of Texas
TTITLE1=Blueberry Hill
TTITLE2=Have I Told You Lately That I Love You
TTITLE3=You Are My Sunshine
TTITLE4=Tumbling Tumbleweeds
TTITLE5=Riding Down The Canyon (with Jimmy Long)
TTITLE6=Be Honest With Me
TTITLE7=The Call Of The Canyon
TTITLE8=El Rancho Grande
TTITLE9=South Of The Border
TTITLE10=Red River Valley
TTITLE11=I'll Never Let You Go
TTITLE12=No One To Call Me Darling
TTITLE13=(I've Got Spurs That) Jingle, Jangle, Jingle
TTITLE14=The Old Trail
TTITLE15=Ole Faithful
TTITLE16=Lonely River
TTITLE17=It Makes No Difference Now
TTITLE18=Dust
TTITLE19=Take Me Back To My Boots And Saddle
TTITLE20=The Last Round-up
TTITLE21=I'm Thinking Tonight Of My Blue Eyes
TTITLE22=Mexicali Rose
TTITLE23=The Yellow Rose Of Texas
TTITLE24=Goodbye, Little Darlin' Goodbye
TTITLE25=Back In The Saddle Again
EXTD=
EXTT0=
EXTT1=
EXTT2=
EXTT3=
EXTT4=
EXTT5=
EXTT6=
EXTT7=
EXTT8=
EXTT9=
EXTT10=
EXTT11=
EXTT12=
EXTT13=
EXTT14=
EXTT15=
EXTT16=
EXTT17=
EXTT18=
EXTT19=
EXTT20=
EXTT21=
EXTT22=
EXTT23=
EXTT24=
EXTT25=
PLAYORDER=
